<svg xmlns="http://www.w3.org/2000/svg" width="88" height="78" viewBox="0 0 88 78">
<g>
<path d="M 0.00 0.00 L 88.00 0.00 L 88.00 78.00 L 0.00 78.00 ZM 31.00 60.50 C32.07,61.79 34.48,62.01 44.88,61.78 C56.58,61.52 57.50,61.36 57.83,59.50 C58.03,58.40 59.19,56.38 60.42,55.00 C65.84,48.89 69.05,39.66 66.93,36.25 C66.10,34.91 66.34,33.36 67.92,29.67 C70.59,23.47 70.58,21.77 67.91,22.18 C66.40,22.41 65.05,24.31 63.07,29.00 L 60.32 35.50 L 21.50 36.50 L 21.19 39.21 C20.78,42.71 23.86,49.63 27.83,54.16 C29.55,56.11 30.68,57.99 30.33,58.33 C29.99,58.67 30.29,59.65 31.00,60.50 ZM 41.57 29.43 C42.44,30.29 43.57,31.00 44.10,31.00 C45.61,31.00 46.38,27.98 45.18,26.78 C44.41,26.01 44.51,24.91 45.55,22.91 C47.37,19.39 46.00,15.00 43.08,15.00 C40.49,15.00 39.52,16.72 41.07,18.59 C42.01,19.72 42.03,20.37 41.16,21.24 C39.49,22.91 39.73,27.59 41.57,29.43 ZM 53.02 29.52 C55.62,32.66 58.67,30.32 56.77,26.64 C56.14,25.41 56.18,24.42 56.91,23.69 C59.60,21.00 57.08,14.14 53.80,15.23 C52.66,15.61 52.39,17.14 51.92,25.77 C51.85,27.02 52.34,28.71 53.02,29.52 ZM 29.68 29.20 C32.00,31.76 33.46,30.95 33.73,26.92 C33.86,25.04 34.09,21.98 34.23,20.12 C34.56,16.02 32.11,13.83 29.57,15.94 C28.40,16.92 28.26,17.61 29.06,18.57 C29.83,19.50 29.83,20.45 29.07,21.87 C27.55,24.71 27.74,27.06 29.68,29.20 Z" fill="rgb(4,7,17)"/>
<path d="M 48.50 55.90 C46.30,56.50 44.28,56.95 44.00,56.89 C39.88,56.09 36.59,54.96 34.59,53.65 C31.64,51.72 27.49,46.36 26.55,43.25 L 25.87 41.00 L 43.93 41.00 L 44.45 41.00 C56.89,41.00 61.25,41.00 61.95,42.60 C62.33,43.46 61.64,44.79 60.58,46.84 C60.56,46.89 60.53,46.94 60.50,47.00 C58.54,50.79 53.49,54.53 48.50,55.90 Z" fill="rgb(56,46,6)"/>
<path d="M 31.00 60.50 C30.29,59.65 29.99,58.67 30.33,58.33 C30.68,57.99 29.55,56.11 27.83,54.16 C23.86,49.63 20.78,42.71 21.19,39.21 L 21.50 36.50 L 40.91 36.00 L 60.32 35.50 L 63.07 29.00 C65.05,24.31 66.40,22.41 67.91,22.18 C70.58,21.77 70.59,23.47 67.92,29.67 C66.34,33.36 66.10,34.91 66.93,36.25 C69.05,39.66 65.84,48.89 60.42,55.00 C59.19,56.38 58.03,58.40 57.83,59.50 C57.50,61.36 56.58,61.52 44.88,61.78 C34.48,62.01 32.07,61.79 31.00,60.50 ZM 48.50 55.90 C53.49,54.53 58.54,50.79 60.50,47.00 C63.63,40.95 63.78,41.00 43.93,41.00 L 25.87 41.00 L 26.55 43.25 C27.49,46.36 31.64,51.72 34.59,53.65 C36.59,54.96 39.88,56.09 44.00,56.89 C44.28,56.95 46.30,56.50 48.50,55.90 ZM 29.68 29.20 C27.74,27.06 27.55,24.71 29.07,21.87 C29.83,20.45 29.83,19.50 29.06,18.57 C28.26,17.61 28.40,16.92 29.57,15.94 C32.11,13.83 34.56,16.02 34.23,20.12 C34.09,21.98 33.86,25.04 33.73,26.92 C33.46,30.95 32.00,31.76 29.68,29.20 ZM 41.57 29.43 C39.73,27.59 39.49,22.91 41.16,21.24 C42.03,20.37 42.01,19.72 41.07,18.59 C39.52,16.72 40.49,15.00 43.08,15.00 C46.00,15.00 47.37,19.39 45.55,22.91 C44.51,24.91 44.41,26.01 45.18,26.78 C46.38,27.98 45.61,31.00 44.10,31.00 C43.57,31.00 42.44,30.29 41.57,29.43 ZM 53.02 29.52 C52.34,28.71 51.85,27.02 51.92,25.77 C52.39,17.14 52.66,15.61 53.80,15.23 C57.08,14.14 59.60,21.00 56.91,23.69 C56.18,24.42 56.14,25.41 56.77,26.64 C58.67,30.32 55.62,32.66 53.02,29.52 Z" fill="rgb(242,198,22)"/>
</g>
</svg>